<?xml version="1.0" encoding="utf-8"?>
<svg xmlns="http://www.w3.org/2000/svg" viewBox="0 0 40 40" version="1.1" fill="#4aa5f0"><g><path d="M32.2 9.5c-.2-.7-.1-.7-.4-.9-1.7-1.2-5.3.2-6.7 1.9-.8-3.8-3.8-6.1-4.7-5.9-.9-.2-4 2.1-4.8 5.9-1.3-1.7-5-3.1-6.7-1.9-.1.1-.5.6-.5.7C5.4 20.7 15 24.6 19 25.7v8.7c0 .7.3 1.2 1 1.2s1-.5 1-1.2v-8.6c4-1 14.2-4.8 11.2-16.3z"/><path id="service_XMLID_7_" d="M6 25c-.9 0-1.6.7-1.6 1.5.1.8.7 1.5 1.6 1.5 3.1 0 6.5 1.5 8.5 3.7.3.3.7.6 1.1.6.4 0 .7-.1 1-.4.6-.6.6-1.6.1-2.3C14.1 26.8 10 25 6 25z"/><path id="service_XMLID_8_" d="M34.6 25c-4 0-8.1 1.9-10.7 4.6-.6.6-.5 1.6.1 2.2.3.3.7.4 1 .4.4 0 .8-.3 1.1-.6 2-2.1 5.3-3.7 8.4-3.7h.1c.8 0 1.5-.7 1.5-1.5 0-.7-.7-1.4-1.5-1.4z"/></g></svg>
